<svg width="1200" height="700" viewBox="0 0 1200 700" fill="none" xmlns="http://www.w3.org/2000/svg">
  <rect width="1200" height="700" rx="30" fill="#07111F"/>
  <circle cx="600" cy="350" r="100" fill="#0B1624" stroke="#6EE7F9" stroke-width="2"/>
  <text x="600" y="340" fill="#E5EEFB" font-family="Arial, sans-serif" font-size="32" text-anchor="middle">pacobaco</text>
  <text x="600" y="376" fill="#9AB0D1" font-family="Arial, sans-serif" font-size="18" text-anchor="middle">systems core</text>

  <line x1="600" y1="350" x2="280" y2="180" stroke="#36506E"/>
  <line x1="600" y1="350" x2="925" y2="180" stroke="#4F4C5D"/>
  <line x1="600" y1="350" x2="260" y2="530" stroke="#4F4C7A"/>
  <line x1="600" y1="350" x2="930" y2="525" stroke="#2F6658"/>
  <line x1="600" y1="350" x2="600" y2="110" stroke="#51667F"/>

  <rect x="210" y="140" width="150" height="70" rx="35" fill="#0B1624" stroke="#6EE7F9"/>
  <text x="285" y="183" fill="#E5EEFB" font-family="Arial, sans-serif" font-size="24" text-anchor="middle">Intelligence</text>

  <rect x="845" y="140" width="160" height="70" rx="35" fill="#0B1624" stroke="#FFD47A"/>
  <text x="925" y="183" fill="#E5EEFB" font-family="Arial, sans-serif" font-size="24" text-anchor="middle">Financial</text>

  <rect x="175" y="495" width="170" height="70" rx="35" fill="#0B1624" stroke="#BBA9FF"/>
  <text x="260" y="538" fill="#E5EEFB" font-family="Arial, sans-serif" font-size="24" text-anchor="middle">Network</text>

  <rect x="845" y="490" width="170" height="70" rx="35" fill="#0B1624" stroke="#7EF2C5"/>
  <text x="930" y="533" fill="#E5EEFB" font-family="Arial, sans-serif" font-size="24" text-anchor="middle">Infrastructure</text>

  <rect x="495" y="75" width="210" height="60" rx="30" fill="#0B1624" stroke="#D7DEE8"/>
  <text x="600" y="113" fill="#E5EEFB" font-family="Arial, sans-serif" font-size="22" text-anchor="middle">WeTheMachines</text>
</svg>
